:FULLY-SPECIFIED
:FORCE-ALL-JOINTS-BE-3DOF
:DEGREES
1733
root -5.1333 15.5419 26.8557 -172.372 -2.40235 -171.313
lfemur -45.6614 21.0396 -20.1112
ltibia 64.3171 -0 0
lfoot -16.3465 31.9021 -0.363617
ltoes -5.321 0 0
rfemur -23.4503 -17.9485 16.8994
rtibia 67.7226 -0 0
rfoot -8.84607 -24.5652 -0.0173493
rtoes 8.74823 -0 0
lowerback 14.9953 2.21628 -4.24426
upperback -1.0413 2.41809 3.1008
thorax -9.73598 1.45413 5.27103
lowerneck 3.91925 -14.1709 -15.081
upperneck -2.28831 -20.1488 21.2126
head 2.66435 -10.3613 8.0856
lclavicle -7.05686e-14 -3.97569e-15 0
lhumerus -49.1786 -44.7489 118.709
lradius 96.3795 -0 0
lwrist 36.6715 0 0
lhand -5.84238 40.2144 0.234891
lfingers 7.12502 -0 0
lthumb 19.979 69.151 0.211629
rclavicle -7.05686e-14 -3.97569e-15 0
rhumerus 49.239 29.4399 -25.3357
rradius 103.525 -0 0
rwrist -13.7083 0 0
rhand 4.13462 -27.9138 0.231108
rfingers 7.12502 -0 0
rthumb 29.4996 -55.0943 0.363753
1734
root -5.05466 15.5416 26.887 -172.23 0.0933511 -171.215
lfemur -45.1674 20.7169 -19.4547
ltibia 64.7048 -0 0
lfoot -16.0778 31.4021 -0.38714
ltoes -5.98353 0 0
rfemur -23.6189 -18.5803 17.2079
rtibia 67.3551 -0 0
rfoot -9.02178 -24.5287 -0.0184689
rtoes 8.18705 -0 0
lowerback 14.9768 2.34196 -4.13589
upperback -1.04125 2.60072 3.02155
thorax -9.72746 1.5341 5.07998
lowerneck 3.68081 -13.9598 -14.9024
upperneck -2.06687 -19.8323 20.9505
head 2.67376 -10.18 7.99848
lclavicle -7.05686e-14 -3.97569e-15 0
lhumerus -49.9212 -43.899 118.468
lradius 96.6527 -0 0
lwrist 36.037 0 0
lhand -6.09598 39.8721 0.250068
lfingers 7.12502 -0 0
lthumb 19.735 68.8305 0.225301
rclavicle -7.05686e-14 -3.97569e-15 0
rhumerus 48.0805 28.7411 -26.2638
rradius 101.46 -0 0
rwrist -12.9945 0 0
rhand 3.47359 -28.0429 0.246075
rfingers 7.12502 -0 0
rthumb 28.866 -55.3063 0.387309
1735
root -4.97603 15.5413 26.9184 -172.083 2.5888 -171.111
lfemur -44.6783 20.3889 -18.8025
ltibia 65.0926 -0 0
lfoot -15.809 30.9019 -0.408317
ltoes -6.64606 0 0
rfemur -23.7917 -19.2113 17.5195
rtibia 66.9876 -0 0
rfoot -9.19749 -24.4922 -0.0194766
rtoes 7.62586 -0 0
lowerback 14.9586 2.46768 -4.02754
upperback -1.04146 2.78335 2.94229
thorax -9.71921 1.6141 4.88893
lowerneck 3.44326 -13.748 -14.7249
upperneck -1.84741 -19.5149 20.6902
head 2.68289 -9.99863 7.91143
lclavicle -7.05686e-14 -3.97569e-15 0
lhumerus -50.6583 -43.0515 118.215
lradius 96.9258 -0 0
lwrist 35.4025 0 0
lhand -6.34966 39.5298 0.26373
lfingers 7.12502 -0 0
lthumb 19.4909 68.5099 0.237608
rclavicle -7.05686e-14 -3.97569e-15 0
rhumerus 46.9427 28.0263 -27.1697
rradius 99.3945 -0 0
rwrist -12.2807 0 0
rhand 2.81252 -28.1722 0.259551
rfingers 7.12502 -0 0
rthumb 28.2322 -55.5185 0.408519
1736
root -4.89739 15.541 26.9498 -171.932 5.08397 -171
lfemur -44.1944 20.0557 -18.1547
ltibia 65.4803 -0 0
lfoot -15.5399 30.4017 -0.427146
ltoes -7.30859 0 0
rfemur -23.9688 -19.8414 17.8343
rtibia 66.6201 -0 0
rfoot -9.3732 -24.4557 -0.0203724
rtoes 7.06467 -0 0
lowerback 14.9406 2.59343 -3.91923
upperback -1.04191 2.96598 2.86301
thorax -9.71122 1.69413 4.69789
lowerneck 3.2066 -13.5355 -14.5485
upperneck -1.6299 -19.1965 20.4318
head 2.69174 -9.81727 7.82446
lclavicle -7.05686e-14 -3.97569e-15 0
lhumerus -51.3905 -42.2063 117.951
lradius 97.199 -0 0
lwrist 34.768 0 0
lhand -6.60343 39.1874 0.275876
lfingers 7.12502 -0 0
lthumb 19.2467 68.1893 0.248549
rclavicle -7.05686e-14 -3.97569e-15 0
rhumerus 45.8253 27.2959 -28.0534
rradius 97.3294 -0 0
rwrist -11.5669 0 0
rhand 2.15143 -28.3017 0.271534
rfingers 7.12502 -0 0
rthumb 27.5983 -55.731 0.427379
1737
root -4.81875 15.5407 26.9811 -171.775 7.57884 -170.881
lfemur -43.7154 19.7174 -17.5113
ltibia 65.868 -0 0
lfoot -15.2708 29.9013 -0.443626
ltoes -7.97112 0 0
rfemur -24.1504 -20.4706 18.1525
rtibia 66.2525 -0 0
rfoot -9.54891 -24.4192 -0.0211562
rtoes 6.50349 -0 0
lowerback 14.9229 2.71921 -3.81094
upperback -1.04262 3.14861 2.78372
thorax -9.7035 1.77418 4.50685
lowerneck 2.97083 -13.3223 -14.3731
upperneck -1.41433 -18.8773 20.1751
head 2.7003 -9.63589 7.73757
lclavicle -7.05686e-14 -3.97569e-15 0
lhumerus -52.1183 -41.3638 117.676
lradius 97.4721 -0 0
lwrist 34.1335 0 0
lhand -6.85726 38.8449 0.286505
lfingers 7.12502 -0 0
lthumb 19.0025 67.8687 0.258124
rclavicle -7.05686e-14 -3.97569e-15 0
rhumerus 44.7278 26.5505 -28.9152
rradius 95.2643 -0 0
rwrist -10.8531 0 0
rhand 1.49031 -28.4313 0.282024
rfingers 7.12502 -0 0
rthumb 26.9644 -55.9437 0.443887
1738
root -4.74011 15.5404 27.0125 -171.611 10.0734 -170.755
lfemur -43.2416 19.3741 -16.8723
ltibia 66.2557 -0 0
lfoot -15.0015 29.4009 -0.457755
ltoes -8.63364 0 0
rfemur -24.3364 -21.0987 18.4742
rtibia 65.885 -0 0
rfoot -9.72462 -24.3827 -0.021828
rtoes 5.9423 -0 0
lowerback 14.9054 2.84503 -3.70268
upperback -1.04359 3.33124 2.70441
thorax -9.69605 1.85425 4.31582
lowerneck 2.73593 -13.1084 -14.1988
upperneck -1.20068 -18.5571 19.9202
head 2.70858 -9.4545 7.65075
lclavicle -7.05686e-14 -3.97569e-15 0
lhumerus -52.8422 -40.5239 117.39
lradius 97.7453 -0 0
lwrist 33.499 0 0
lhand -7.11115 38.5025 0.295617
lfingers 7.12502 -0 0
lthumb 18.7583 67.548 0.266331
rclavicle -7.05686e-14 -3.97569e-15 0
rhumerus 43.65 25.7907 -29.7555
rradius 93.1992 -0 0
rwrist -10.1393 0 0
rhand 0.829173 -28.5609 0.291017
rfingers 7.12502 -0 0
rthumb 26.3304 -56.1566 0.458042
1739
root -4.66148 15.5401 27.0439 -171.441 12.5675 -170.621
lfemur -42.7728 19.0259 -16.2376
ltibia 66.6435 -0 0
lfoot -14.732 28.9005 -0.469531
ltoes -9.29617 0 0
rfemur -24.527 -21.7259 18.7994
rtibia 65.5175 -0 0
rfoot -9.90033 -24.3462 -0.0223879
rtoes 5.38111 -0 0
lowerback 14.8881 2.97088 -3.59445
upperback -1.0448 3.51386 2.62508
thorax -9.68887 1.93436 4.12479
lowerneck 2.50191 -12.8938 -14.0255
upperneck -0.988923 -18.236 19.667
head 2.71658 -9.2731 7.564
lclavicle -7.05686e-14 -3.97569e-15 0
lhumerus -53.5626 -39.6867 117.095
lradius 98.0184 -0 0
lwrist 32.8646 0 0
lhand -7.36509 38.1599 0.303211
lfingers 7.12502 -0 0
lthumb 18.514 67.2272 0.273172
rclavicle -7.05686e-14 -3.97569e-15 0
rhumerus 42.5914 25.0169 -30.5746
rradius 91.1341 -0 0
rwrist -9.42548 0 0
rhand 0.168014 -28.6907 0.298514
rfingers 7.12502 -0 0
rthumb 25.6964 -56.3696 0.46984
1740
root -4.58284 15.5398 27.0752 -171.263 15.0613 -170.478
lfemur -42.3091 18.6728 -15.6073
ltibia 67.0312 -0 0
lfoot -14.4625 28.4 -0.478953
ltoes -9.9587 0 0
rfemur -24.7223 -22.3521 19.1284
rtibia 65.1499 -0 0
rfoot -10.076 -24.3096 -0.0228358
rtoes 4.81993 -0 0
lowerback 14.8711 3.09676 -3.48624
upperback -1.04627 3.69649 2.54573
thorax -9.68195 2.01448 3.93375
lowerneck 2.26875 -12.6785 -13.8533
upperneck -0.77905 -17.914 19.4155
head 2.72429 -9.09169 7.47733
lclavicle -7.05686e-14 -3.97569e-15 0
lhumerus -54.2801 -38.8525 116.789
lradius 98.2915 -0 0
lwrist 32.2301 0 0
lhand -7.61907 37.8174 0.309287
lfingers 7.12502 -0 0
lthumb 18.2696 66.9065 0.278644
rclavicle -7.05686e-14 -3.97569e-15 0
rhumerus 41.5517 24.2297 -31.3727
rradius 89.0689 -0 0
rwrist -8.71167 0 0
rhand -0.493162 -28.8206 0.304512
rfingers 7.12502 -0 0
rthumb 25.0623 -56.5827 0.47928
1741
root -4.5042 15.5395 27.1066 -171.076 17.5545 -170.324
lfemur -41.8504 18.3149 -14.9813
ltibia 67.4189 -0 0
lfoot -14.1929 27.8994 -0.48602
ltoes -10.6212 0 0
rfemur -24.9225 -22.9773 19.4611
rtibia 64.7824 -0 0
rfoot -10.2517 -24.2731 -0.0231717
rtoes 4.25874 -0 0
lowerback 14.8543 3.22267 -3.37806
upperback -1.048 3.87911 2.46636
thorax -9.6753 2.09463 3.74272
lowerneck 2.03645 -12.4626 -13.6821
upperneck -0.571039 -17.5912 19.1657
head 2.73172 -8.91027 7.39072
lclavicle -7.05686e-14 -3.97569e-15 0
lhumerus -54.995 -38.0213 116.473
lradius 98.5647 -0 0
lwrist 31.5956 0 0
lhand -7.87309 37.4748 0.313844
lfingers 7.12502 -0 0
lthumb 18.0253 66.5857 0.282749
rclavicle -7.05686e-14 -3.97569e-15 0
rhumerus 40.5303 23.4296 -32.1503
rradius 87.0038 -0 0
rwrist -7.99786 0 0
rhand -1.15435 -28.9505 0.309012
rfingers 7.12502 -0 0
rthumb 24.4282 -56.7959 0.486362
1742
root -4.42557 15.5392 27.138 -170.879 20.0473 -170.16
lfemur -41.3969 17.9523 -14.3597
ltibia 67.8067 -0 0
lfoot -13.9233 27.3988 -0.490732
ltoes -11.2838 0 0
rfemur -25.1275 -23.6013 19.7978
rtibia 64.4149 -0 0
rfoot -10.4275 -24.2366 -0.0233957
rtoes 3.69755 -0 0
lowerback 14.8378 3.34862 -3.2699
upperback -1.04998 4.06173 2.38697
thorax -9.66891 2.1748 3.55169
lowerneck 1.805 -12.246 -13.512
upperneck -0.364873 -17.2675 18.9176
head 2.73887 -8.72883 7.30418
lclavicle -7.05686e-14 -3.97569e-15 0
lhumerus -55.7076 -37.1932 116.148
lradius 98.8378 -0 0
lwrist 30.9611 0 0
lhand -8.12713 37.1322 0.316882
lfingers 7.12502 -0 0
lthumb 17.7809 66.2649 0.285486
rclavicle -7.05686e-14 -3.97569e-15 0
rhumerus 39.5269 22.6171 -32.9077
rradius 84.9387 -0 0
rwrist -7.28406 0 0
rhand -1.81555 -29.0805 0.312012
rfingers 7.12502 -0 0
rthumb 23.7941 -57.0092 0.491083
1743
root -4.34693 15.5389 27.1693 -170.671 22.5395 -169.984
lfemur -40.9484 17.585 -13.7423
ltibia 68.1944 -0 0
lfoot -13.6536 26.8983 -0.493088
ltoes -11.9463 0 0
rfemur -25.3375 -24.2242 20.1386
rtibia 64.0474 -0 0
rfoot -10.6032 -24.2001 -0.0235077
rtoes 3.13637 -0 0
lowerback 14.8214 3.47459 -3.16176
upperback -1.05221 4.24434 2.30755
thorax -9.66279 2.25499 3.36065
lowerneck 1.5744 -12.0287 -13.3429
upperneck -0.160531 -16.9429 18.6711
head 2.74574 -8.54739 7.2177
lclavicle -7.05686e-14 -3.97569e-15 0
lhumerus -56.4185 -36.3684 115.814
lradius 99.111 -0 0
lwrist 30.3266 0 0
lhand -8.38118 36.7896 0.318401
lfingers 7.12502 -0 0
lthumb 17.5365 65.9441 0.286854
rclavicle -7.05686e-14 -3.97569e-15 0
rhumerus 38.541 21.7926 -33.6452
rradius 82.8736 -0 0
rwrist -6.57025 0 0
rhand -2.47675 -29.2105 0.313512
rfingers 7.12502 -0 0
rthumb 23.1599 -57.2225 0.493444
1744
root -4.26829 15.5387 27.2007 -170.45 25.0311 -169.794
lfemur -40.505 17.2132 -13.1292
ltibia 68.5821 -0 0
lfoot -13.3839 26.3976 -0.493088
ltoes -12.6088 0 0
rfemur -25.5526 -24.8459 20.4836
rtibia 63.6798 -0 0
rfoot -10.7789 -24.1636 -0.0235077
rtoes 2.57518 -0 0
lowerback 14.8054 3.6006 -3.05365
upperback -1.05469 4.42696 2.22811
thorax -9.65694 2.3352 3.16961
lowerneck 1.34465 -11.8107 -13.1748
upperneck 0.0420015 -16.6176 18.4263
head 2.75234 -8.36594 7.13128
lclavicle -7.05686e-14 -3.97569e-15 0
lhumerus -57.1278 -35.547 115.471
lradius 99.3841 -0 0
lwrist 29.6921 0 0
lhand -8.63523 36.447 0.318401
lfingers 7.12502 -0 0
lthumb 17.2921 65.6234 0.286854
rclavicle -7.05686e-14 -3.97569e-15 0
rhumerus 37.5721 20.9565 -34.3633
rradius 80.8084 -0 0
rwrist -5.85644 0 0
rhand -3.13795 -29.3404 0.313512
rfingers 7.12502 -0 0
rthumb 22.5258 -57.4358 0.493444
1745
root -4.18965 15.5384 27.232 -170.215 27.522 -169.589
lfemur -40.0667 16.8369 -12.5204
ltibia 68.9698 -0 0
lfoot -13.1143 25.8971 -0.490732
ltoes -13.2713 0 0
rfemur -25.773 -25.4665 20.8329
rtibia 63.3123 -0 0
rfoot -10.9546 -24.1271 -0.0233957
rtoes 2.014 -0 0
lowerback 14.7895 3.72664 -2.94555
upperback -1.05744 4.60957 2.14864
thorax -9.65136 2.41542 2.97857
lowerneck 1.11572 -11.5921 -13.0078
upperneck 0.242745 -16.2914 18.1831
head 2.75865 -8.18447 7.04493
lclavicle -7.05686e-14 -3.97569e-15 0
lhumerus -57.8361 -34.7291 115.118
lradius 99.6573 -0 0
lwrist 29.0576 0 0
lhand -8.88928 36.1044 0.316882
lfingers 7.12502 -0 0
lthumb 17.0477 65.3026 0.285486
rclavicle -7.05686e-14 -3.97569e-15 0
rhumerus 36.6197 20.1094 -35.0622
rradius 78.7433 -0 0
rwrist -5.14263 0 0
rhand -3.79915 -29.4704 0.312012
rfingers 7.12502 -0 0
rthumb 21.8917 -57.6491 0.491083
